<?xml version="1.0" encoding="utf-8"?>
<svg width="135px" height="24px" viewBox="0 0 135 24" version="1.1" xmlns:xlink="http://www.w3.org/1999/xlink" xmlns="http://www.w3.org/2000/svg">
  <desc>Created with Lunacy</desc>
  <g id="gympointlogo">
    <g id="GYMPOINT" fill="#EE4D64" transform="translate(57.67908 2.977844)">
      <path d="M7.7124 15.0867Q8.79639 14.6948 9.38965 13.9844L9.38965 9.729L5.19287 9.729L5.19287 11.3477L7.19238 11.3477L7.19238 13.186Q6.66504 13.7134 5.42725 13.7134Q4.19678 13.7134 3.55957 12.8564Q2.92236 11.9995 2.92236 10.3223L2.92236 9.64111Q2.92969 7.97852 3.51563 7.13623Q4.10156 6.29395 5.22217 6.29395Q6.10107 6.29395 6.60278 6.71875Q7.10449 7.14356 7.25098 8.05908L9.38965 8.05908Q9.19189 6.33057 8.12256 5.42603Q7.05322 4.52148 5.15625 4.52148Q3.79395 4.52149 2.77954 5.14038Q1.76514 5.75928 1.22681 6.92749Q0.688477 8.0957 0.688477 9.69238L0.688477 10.4175Q0.703125 11.9702 1.27075 13.1201Q1.83838 14.27 2.88208 14.8743Q3.92578 15.4785 5.31006 15.4785Q6.62842 15.4785 7.7124 15.0867ZM52.0166 10.2417Q52.0166 11.8164 51.46 13.0029Q50.9033 14.1895 49.8669 14.834Q48.8306 15.4785 47.4902 15.4785Q46.1646 15.4785 45.1245 14.8413Q44.0845 14.2041 43.5132 13.0212Q42.9419 11.8384 42.9346 10.3003L42.9346 9.77295Q42.9346 8.19824 43.5022 7.00073Q44.0698 5.80322 45.1062 5.16235Q46.1426 4.52149 47.4756 4.52148Q48.8086 4.52148 49.845 5.16235Q50.8813 5.80322 51.449 7.00073Q52.0166 8.19824 52.0166 9.76563L52.0166 10.2417ZM17.0654 4.66797L14.8462 9.47266L12.6416 4.66797L10.2319 4.66797L13.7329 11.4648L13.7329 15.332L15.9668 15.332L15.9668 11.4648L19.4678 4.66797L17.0654 4.66797ZM23.313 4.66797L26.0522 12.4023L28.7769 4.66797L31.6626 4.66797L31.6626 15.332L29.458 15.332L29.458 12.417L29.6777 7.38525L26.7993 15.332L25.2905 15.332L22.4194 7.39258L22.6392 12.417L22.6392 15.332L20.4419 15.332L20.4419 4.66797L23.313 4.66797ZM35.7788 15.332L35.7788 11.5747L37.7051 11.5747Q39.6021 11.5747 40.675 10.6702Q41.748 9.76563 41.748 8.19824Q41.748 7.16553 41.2573 6.3562Q40.7666 5.54688 39.8547 5.10742Q38.9429 4.66797 37.7417 4.66797L33.5815 4.66797L33.5815 15.332L35.7788 15.332ZM53.7524 15.332L55.9497 15.332L55.9497 4.66797L53.7524 4.66797L53.7524 15.332ZM66.6577 15.332L64.4604 15.332L60.1831 8.31543L60.1831 15.332L57.9858 15.332L57.9858 4.66797L60.1831 4.66797L64.4678 11.6992L64.4678 4.66797L66.6577 4.66797L66.6577 15.332ZM73.3374 6.44775L76.604 6.44775L76.604 4.66797L67.9175 4.66797L67.9175 6.44775L71.1401 6.44775L71.1401 15.332L73.3374 15.332L73.3374 6.44775ZM49.79 9.7583Q49.79 8.08105 49.1895 7.20947Q48.5889 6.33789 47.4756 6.33789Q46.3696 6.33789 45.769 7.19849Q45.1685 8.05908 45.1611 9.72168L45.1611 10.2417Q45.1611 11.875 45.7617 12.7759Q46.3623 13.6768 47.4902 13.6768Q48.5962 13.6768 49.1895 12.8088Q49.7827 11.9409 49.79 10.2783L49.79 9.7583ZM37.7417 9.79492L35.7788 9.79492L35.7788 6.44775L37.793 6.44775Q38.606 6.4624 39.0674 6.9458Q39.5288 7.4292 39.5288 8.21289Q39.5288 8.97461 39.071 9.38477Q38.6133 9.79492 37.7417 9.79492Z" />
    </g>
    <g id="Group-2">
      <g id="noun_Gym_1617325">
        <g id="Group">
          <path d="M23.2494 5.64775C23.6684 5.44586 24.1378 5.33261 24.6332 5.33261C26.3968 5.33261 27.8317 6.76735 27.8317 8.53094L27.8317 15.1052C27.8317 16.8688 26.3968 18.3036 24.6332 18.3036C24.1378 18.3036 23.6684 18.1904 23.2494 17.9885C23.145 19.6584 21.7539 20.9854 20.058 20.9854C19.5616 20.9854 19.0914 20.8718 18.6719 20.6692C18.5529 22.325 17.1685 23.6362 15.4827 23.6362C13.7191 23.6362 12.2843 22.2014 12.2843 20.4378L12.2843 16.0468L0.91079 16.0468C0.407791 16.0468 0 15.6391 0 15.1361C0 14.6331 0.407791 14.2253 0.91079 14.2253L13.1951 14.2253C13.6981 14.2253 14.1059 14.6331 14.1059 15.1361L14.1059 20.4378C14.1059 21.197 14.7235 21.8146 15.4827 21.8146C16.2419 21.8146 16.8596 21.197 16.8596 20.4378L16.8596 3.19845C16.8596 2.43922 16.2419 1.82158 15.4827 1.82158C14.7235 1.82158 14.1059 2.43922 14.1059 3.19845L14.1059 8.50016C14.1059 9.00316 13.6981 9.41095 13.1951 9.41095C12.6921 9.41095 12.2843 9.00316 12.2843 8.50016L12.2843 3.19845C12.2843 1.4348 13.7191 0 15.4827 0C17.1684 0 18.5528 1.31117 18.6719 2.96705C19.0914 2.76443 19.5616 2.65082 20.058 2.65082C21.7539 2.65082 23.145 3.97766 23.2494 5.64775ZM21.4349 17.7869C21.4349 18.5462 20.8173 19.1638 20.058 19.1638C19.2988 19.1638 18.6812 18.5462 18.6812 17.7869L18.6812 5.84928C18.6812 5.09005 19.2988 4.47241 20.058 4.47241C20.8173 4.47241 21.4349 5.09005 21.4349 5.84928L21.4349 17.7869ZM24.6332 16.482C25.3924 16.482 26.0101 15.8644 26.0101 15.1052L26.0101 8.53096C26.0101 7.77184 25.3924 7.15421 24.6332 7.15421C23.874 7.15421 23.2564 7.77184 23.2564 8.53096L23.2564 15.1052C23.2564 15.8644 23.874 16.482 24.6332 16.482Z" transform="translate(17.29175 0)" id="Shape" fill="#EE4D64" fill-rule="evenodd" stroke="none" />
          <path d="M13.7259 15.1361C13.7259 14.6331 14.1337 14.2253 14.6367 14.2253C15.1398 14.2253 15.5475 14.633 15.5475 15.136L15.5475 20.4377C15.5475 22.2014 14.1127 23.6362 12.349 23.6362C10.6633 23.6362 9.27895 22.325 9.15988 20.6691C8.74024 20.8717 8.27003 20.9853 7.77371 20.9853C6.07782 20.9853 4.68668 19.6585 4.58224 17.9884C4.16328 18.1903 3.69386 18.3035 3.19845 18.3035C1.4348 18.3035 0 16.8688 0 15.1052L0 8.53107C0 6.76741 1.4348 5.33261 3.19845 5.33261C3.69386 5.33261 4.16328 5.44586 4.58224 5.64775C4.68668 3.97778 6.07782 2.65082 7.77371 2.65082C8.27003 2.65082 8.7403 2.76443 9.15988 2.96705C9.27895 1.31117 10.6633 0 12.349 0C14.1127 0 15.5475 1.4348 15.5475 3.19845L15.5475 7.58937L26.9211 7.58937C27.4241 7.58937 27.8319 7.99716 27.8319 8.50016C27.8319 9.00316 27.4241 9.41095 26.9211 9.41095L14.6367 9.41095C14.1337 9.41095 13.7259 9.00316 13.7259 8.50016L13.7259 3.19845C13.7259 2.43922 13.1083 1.82158 12.349 1.82158C11.5898 1.82158 10.9722 2.43922 10.9722 3.19845L10.9722 20.4378C10.9722 21.197 11.5898 21.8146 12.349 21.8146C13.1083 21.8146 13.7259 21.197 13.7259 20.4378L13.7259 15.1361ZM6.39691 17.7869C6.39691 18.5462 7.01461 19.1638 7.77378 19.1638C8.53302 19.1638 9.15065 18.5462 9.15065 17.7869L9.15065 5.84928C9.15065 5.09005 8.53302 4.47241 7.77378 4.47241C7.01455 4.47241 6.39691 5.09005 6.39691 5.84928L6.39691 17.7869ZM3.19859 16.482C2.43941 16.482 1.82172 15.8644 1.82172 15.1053L1.82172 8.53108C1.82172 7.77184 2.43935 7.15421 3.19859 7.15421C3.95776 7.15421 4.5754 7.77184 4.5754 8.53108L4.5754 15.1052C4.57534 15.8644 3.9577 16.482 3.19859 16.482Z" id="Shape" fill="#EE4D64" fill-rule="evenodd" stroke="none" />
          <path d="M0 0.91079L0 1.21615C0 1.71915 0.407791 2.12694 0.91079 2.12694C1.41379 2.12694 1.82158 1.71915 1.82158 1.21615L1.82158 0.91079C1.82158 0.407791 1.41379 0 0.91079 0C0.407791 0 0 0.407791 0 0.91079Z" transform="translate(13.72327 10.96051)" id="Path" fill="#EE4D64" stroke="none" />
          <path d="M1.82158 1.21615L1.82158 0.91079C1.82158 0.407791 1.41373 0 0.91079 0C0.407731 0 0 0.407791 0 0.91079L0 1.21615C0 1.71915 0.407731 2.12694 0.91079 2.12694C1.41379 2.12694 1.82158 1.71915 1.82158 1.21615Z" transform="translate(29.57611 10.55386)" id="Path" fill="#EE4D64" stroke="none" />
        </g>
      </g>
    </g>
  </g>
</svg>