<?xml version="1.0" encoding="utf-8"?>
<svg width="153px" height="100px" viewBox="0 0 153 100" version="1.1" xmlns:xlink="http://www.w3.org/1999/xlink" xmlns="http://www.w3.org/2000/svg">
  <desc>Created with Lunacy</desc>
  <g id="logogym">
    <g id="GYMPOINT" fill="#EE4D64" transform="translate(0 64.69817)">
      <path d="M15.3532 29.6256Q17.5111 28.8456 18.6921 27.4313L18.6921 18.9601L10.3375 18.9601L10.3375 22.1823L14.318 22.1823L14.318 25.842Q13.2682 26.8918 10.8041 26.8918Q8.35458 26.8918 7.08608 25.1859Q5.81759 23.48 5.81759 20.1411L5.81759 18.7851Q5.83217 15.4753 6.9986 13.7986Q8.16503 12.1218 10.3958 12.1218Q12.1455 12.1218 13.1442 12.9675Q14.143 13.8132 14.4346 15.6357L18.6921 15.6357Q18.2984 12.1947 16.1697 10.3941Q14.0409 8.59338 10.2646 8.59338Q7.55266 8.59338 5.53327 9.82543Q3.51388 11.0575 2.44222 13.383Q1.37056 15.7086 1.37056 18.8872L1.37056 20.3306Q1.39972 23.4217 2.5297 25.7108Q3.65968 27.9999 5.73739 29.2028Q7.8151 30.4057 10.5708 30.4057Q13.1953 30.4057 15.3532 29.6256ZM103.55 19.9807Q103.55 23.1155 102.442 25.4775Q101.334 27.8395 99.2708 29.1226Q97.2076 30.4057 94.5394 30.4057Q91.9004 30.4057 89.83 29.1372Q87.7595 27.8687 86.6223 25.514Q85.485 23.1592 85.4704 20.0973L85.4704 19.0475Q85.4704 15.9127 86.6004 13.5289Q87.7304 11.145 89.7935 9.86917Q91.8566 8.59338 94.5103 8.59338Q97.1639 8.59338 99.227 9.86917Q101.29 11.145 102.42 13.5289Q103.55 15.9127 103.55 19.033L103.55 19.9807ZM33.9724 8.88499L29.5545 18.4497L25.1658 8.88499L20.3688 8.88499L27.3383 22.4156L27.3383 30.1141L31.7853 30.1141L31.7853 22.4156L38.7547 8.88499L33.9724 8.88499ZM46.4095 8.88499L51.8625 24.2819L57.2865 8.88499L63.0311 8.88499L63.0311 30.1141L58.6424 30.1141L58.6424 24.3111L59.0798 14.2943L53.3497 30.1141L50.3462 30.1141L44.6307 14.3089L45.0681 24.3111L45.0681 30.1141L40.6939 30.1141L40.6939 8.88499L46.4095 8.88499ZM71.2253 30.1141L71.2253 22.6343L75.06 22.6343Q78.8363 22.6343 80.9723 20.8336Q83.1084 19.033 83.1084 15.9127Q83.1084 13.8569 82.1315 12.2458Q81.1546 10.6346 79.3393 9.75981Q77.5241 8.88499 75.1329 8.88499L66.8512 8.88499L66.8512 30.1141L71.2253 30.1141ZM107.006 30.1141L111.38 30.1141L111.38 8.88499L107.006 8.88499L107.006 30.1141ZM132.696 30.1141L128.322 30.1141L119.807 16.146L119.807 30.1141L115.433 30.1141L115.433 8.88499L119.807 8.88499L128.337 22.8822L128.337 8.88499L132.696 8.88499L132.696 30.1141ZM145.994 12.428L152.497 12.428L152.497 8.88499L135.204 8.88499L135.204 12.428L141.62 12.428L141.62 30.1141L145.994 30.1141L145.994 12.428ZM99.1177 19.0184Q99.1177 15.6795 97.9221 13.9444Q96.7265 12.2093 94.5103 12.2093Q92.3086 12.2093 91.113 13.9225Q89.9174 15.6357 89.9029 18.9455L89.9029 19.9807Q89.9029 23.2321 91.0984 25.0255Q92.294 26.8189 94.5394 26.8189Q96.7411 26.8189 97.9221 25.0911Q99.1031 23.3633 99.1177 20.0536L99.1177 19.0184ZM75.1329 19.0913L71.2253 19.0913L71.2253 12.428L75.235 12.428Q76.8534 12.4572 77.7719 13.4195Q78.6905 14.3818 78.6905 15.9419Q78.6905 17.4583 77.7792 18.2748Q76.868 19.0913 75.1329 19.0913Z" />
    </g>
    <g id="noun_Gym_1617325" transform="translate(26.12811 0)">
      <g id="Group" transform="translate(0.5235838 0)">
        <path d="M51.3425 12.4721C52.2677 12.0263 53.3043 11.7762 54.3984 11.7762C58.293 11.7762 61.4616 14.9446 61.4616 18.8392L61.4616 33.3573C61.4616 37.2519 58.293 40.4204 54.3984 40.4204C53.3043 40.4204 52.2677 40.1704 51.3425 39.7245C51.1119 43.4124 48.0398 46.3427 44.2947 46.3427C43.1986 46.3427 42.1602 46.0919 41.2337 45.6444C40.9709 49.3011 37.9137 52.1966 34.191 52.1966C30.2964 52.1966 27.1279 49.0281 27.1279 45.1334L27.1279 35.4368L2.01133 35.4368C0.900539 35.4368 0 34.5362 0 33.4255C0 32.3147 0.900539 31.4141 2.01133 31.4141L29.1392 31.4141C30.25 31.4141 31.1505 32.3147 31.1505 33.4255L31.1505 45.1334C31.1505 46.81 32.5145 48.174 34.191 48.174C35.8676 48.174 37.2316 46.81 37.2316 45.1334L37.2316 7.06325C37.2316 5.3866 35.8676 4.02266 34.191 4.02266C32.5145 4.02266 31.1505 5.3866 31.1505 7.06325L31.1505 18.7712C31.1505 19.882 30.25 20.7825 29.1392 20.7825C28.0284 20.7825 27.1279 19.882 27.1279 18.7712L27.1279 7.06325C27.1279 3.16851 30.2964 0 34.191 0C37.9135 0 40.9707 2.89551 41.2337 6.55224C42.1602 6.10478 43.1986 5.8539 44.2947 5.8539C48.0398 5.8539 51.1119 8.78401 51.3425 12.4721ZM47.3354 39.2795C47.3354 40.9561 45.9714 42.3201 44.2948 42.3201C42.6182 42.3201 41.2542 40.9561 41.2542 39.2795L41.2542 12.9172C41.2542 11.2405 42.6182 9.87656 44.2948 9.87656C45.9714 9.87656 47.3354 11.2405 47.3354 12.9172L47.3354 39.2795ZM54.3984 36.3978C56.0749 36.3978 57.439 35.0338 57.439 33.3573L57.439 18.8392C57.439 17.1628 56.0749 15.7988 54.3984 15.7988C52.7219 15.7988 51.3579 17.1628 51.3579 18.8392L51.3579 33.3573C51.3579 35.0338 52.7219 36.3978 54.3984 36.3978Z" transform="translate(38.24298 0.04894231)" id="Shape" fill="#EE4D64" fill-rule="evenodd" stroke="none" />
        <path d="M30.3114 33.4255C30.3114 32.3147 31.2119 31.4141 32.3227 31.4141C33.4336 31.4141 34.334 32.3145 34.334 33.4253L34.334 45.1333C34.334 49.028 31.1655 52.1965 27.2708 52.1965C23.5481 52.1965 20.491 49.301 20.2281 45.6443C19.3014 46.0917 18.263 46.3426 17.167 46.3426C13.4219 46.3426 10.3498 43.4125 10.1191 39.7244C9.19391 40.1702 8.15728 40.4203 7.06325 40.4203C3.16851 40.4203 0 37.2519 0 33.3573L0 18.8394C0 14.9447 3.16851 11.7762 7.06325 11.7762C8.15728 11.7762 9.19391 12.0263 10.1191 12.4721C10.3498 8.78427 13.4219 5.8539 17.167 5.8539C18.263 5.8539 19.3015 6.10478 20.2281 6.55224C20.491 2.89551 23.5481 0 27.2708 0C31.1655 0 34.334 3.16851 34.334 7.06325L34.334 16.7599L59.4507 16.7599C60.5615 16.7599 61.462 17.6604 61.462 18.7712C61.462 19.882 60.5615 20.7825 59.4507 20.7825L32.3227 20.7825C31.2119 20.7825 30.3114 19.882 30.3114 18.7712L30.3114 7.06325C30.3114 5.3866 28.9474 4.02266 27.2708 4.02266C25.5941 4.02266 24.2302 5.3866 24.2302 7.06325L24.2302 45.1334C24.2302 46.81 25.5941 48.174 27.2708 48.174C28.9474 48.174 30.3114 46.81 30.3114 45.1334L30.3114 33.4255ZM14.1265 39.2795C14.1265 40.9561 15.4906 42.3201 17.1671 42.3201C18.8437 42.3201 20.2077 40.9561 20.2077 39.2795L20.2077 12.9172C20.2077 11.2405 18.8437 9.87656 17.1671 9.87656C15.4904 9.87656 14.1265 11.2405 14.1265 12.9172L14.1265 39.2795ZM7.06352 36.3978C5.38701 36.3978 4.02292 35.0338 4.02292 33.3575L4.02292 18.8394C4.02292 17.1628 5.38687 15.7988 7.06352 15.7988C8.74002 15.7988 10.104 17.1628 10.104 18.8394L10.104 33.3573C10.1038 35.0338 8.73989 36.3978 7.06352 36.3978Z" transform="translate(0.05698762 0.04894231)" id="Shape" fill="#EE4D64" fill-rule="evenodd" stroke="none" />
        <path d="M0 2.01133L0 2.68566C0 3.79645 0.900539 4.69699 2.01133 4.69699C3.12212 4.69699 4.02266 3.79645 4.02266 2.68566L4.02266 2.01133C4.02266 0.900539 3.12212 0 2.01133 0C0.900539 0 0 0.900539 0 2.01133Z" transform="translate(30.3626 24.2534)" id="Path" fill="#EE4D64" stroke="none" />
        <path d="M4.02266 2.68566L4.02266 2.01133C4.02266 0.900539 3.12199 0 2.01133 0C0.900405 0 0 0.900539 0 2.01133L0 2.68566C0 3.79645 0.900405 4.69699 2.01133 4.69699C3.12212 4.69699 4.02266 3.79645 4.02266 2.68566Z" transform="translate(65.37097 23.35541)" id="Path" fill="#EE4D64" stroke="none" />
      </g>
    </g>
  </g>
</svg>